<svg xmlns="http://www.w3.org/2000/svg" xmlns:xlink="http://www.w3.org/1999/xlink" width="960" zoomAndPan="magnify" viewBox="0 0 720 719.999996" height="960" preserveAspectRatio="xMidYMid meet" version="1.0"><defs><g/></defs><g fill="#401e05" fill-opacity="1"><g transform="translate(27.792619, 471.980246)"><g><path d="M 396.828125 -27.203125 C 376.785156 -16.703125 353.785156 -8.300781 327.828125 -2 C 301.867188 4.289062 275.625 7.4375 249.09375 7.4375 C 205.945312 7.4375 168.003906 -0.429688 135.265625 -16.171875 C 102.535156 -31.921875 77.148438 -54.15625 59.109375 -82.875 C 41.078125 -111.601562 32.0625 -144.867188 32.0625 -182.671875 C 32.0625 -221.410156 42.367188 -255.765625 62.984375 -285.734375 C 83.597656 -315.703125 111.273438 -338.894531 146.015625 -355.3125 C 180.753906 -371.726562 218.644531 -379.9375 259.6875 -379.9375 C 282.207031 -379.9375 302.867188 -378.21875 321.671875 -374.78125 C 340.472656 -371.34375 361.707031 -365.425781 385.375 -357.03125 L 393.953125 -270.5625 C 388.035156 -269.988281 382.503906 -269.703125 377.359375 -269.703125 C 374.679688 -271.992188 372.242188 -274.953125 370.046875 -278.578125 C 367.859375 -282.203125 364.851562 -287.640625 361.03125 -294.890625 C 359.125 -298.710938 357.117188 -302.484375 355.015625 -306.203125 C 352.921875 -309.929688 351.015625 -312.84375 349.296875 -314.9375 C 325.242188 -343.570312 292.890625 -357.890625 252.234375 -357.890625 C 223.222656 -357.890625 197.171875 -350.726562 174.078125 -336.40625 C 150.984375 -322.09375 132.945312 -302.382812 119.96875 -277.28125 C 106.988281 -252.1875 100.5 -224.179688 100.5 -193.265625 C 100.5 -159.859375 106.9375 -129.789062 119.8125 -103.0625 C 132.695312 -76.34375 150.78125 -55.441406 174.0625 -40.359375 C 197.351562 -25.285156 223.984375 -17.75 253.953125 -17.75 C 269.796875 -17.75 283.773438 -19.128906 295.890625 -21.890625 C 308.015625 -24.660156 319.519531 -29.484375 330.40625 -36.359375 C 332.6875 -55.828125 333.828125 -80.066406 333.828125 -109.078125 C 333.828125 -127.210938 331.15625 -143.628906 325.8125 -158.328125 C 323.71875 -164.242188 319.757812 -168.394531 313.9375 -170.78125 C 308.113281 -173.164062 300.238281 -175.125 290.3125 -176.65625 C 281.53125 -178.175781 275.425781 -179.609375 272 -180.953125 C 272 -183.804688 272.09375 -186.710938 272.28125 -189.671875 C 272.46875 -192.628906 272.5625 -194.679688 272.5625 -195.828125 L 444.34375 -195.828125 C 444.34375 -194.679688 444.4375 -192.628906 444.625 -189.671875 C 444.820312 -186.710938 444.921875 -183.804688 444.921875 -180.953125 C 442.441406 -179.992188 439.675781 -179.035156 436.625 -178.078125 C 427.457031 -174.835938 420.296875 -171.785156 415.140625 -168.921875 C 409.992188 -166.054688 405.65625 -161.710938 402.125 -155.890625 C 398.59375 -150.066406 396.828125 -142.289062 396.828125 -132.5625 Z M 396.828125 -27.203125 "/></g></g></g><g fill="#401e05" fill-opacity="1"><g transform="translate(287.529452, 638.133203)"><g><path d="M 82.78125 -286.265625 C 82.78125 -301.210938 81.578125 -312.144531 79.171875 -319.0625 C 76.773438 -325.988281 73.269531 -330.648438 68.65625 -333.046875 C 64.039062 -335.453125 56.566406 -337.671875 46.234375 -339.703125 C 33.679688 -342.472656 24.640625 -344.6875 19.109375 -346.34375 L 19.65625 -360.46875 L 206.8125 -360.46875 L 206.8125 -346.0625 C 201.457031 -343.851562 196.65625 -342.238281 192.40625 -341.21875 C 188.164062 -340.207031 182.539062 -339.054688 175.53125 -337.765625 C 166.664062 -336.285156 160.109375 -334.484375 155.859375 -332.359375 C 151.617188 -330.242188 148.34375 -325.863281 146.03125 -319.21875 C 143.726562 -312.570312 142.578125 -302.144531 142.578125 -287.9375 L 142.578125 -86.375 C 142.578125 -64.039062 144.742188 -48.582031 149.078125 -40 C 153.421875 -31.414062 161.585938 -26.015625 173.578125 -23.796875 C 185.578125 -21.585938 207.546875 -20.484375 239.484375 -20.484375 C 259.785156 -20.484375 276.898438 -23.113281 290.828125 -28.375 C 304.765625 -33.632812 315.890625 -44.203125 324.203125 -60.078125 L 328.34375 -68.390625 C 331.300781 -74.472656 333.976562 -79.59375 336.375 -83.75 C 338.78125 -87.90625 341.550781 -91.734375 344.6875 -95.234375 L 361.296875 -94.6875 L 343.859375 3.046875 C 319.117188 1.015625 298.90625 0 283.21875 0 L 19.375 0 L 18.828125 -14.953125 C 21.597656 -15.867188 27.503906 -17.617188 36.546875 -20.203125 C 47.066406 -22.972656 55.367188 -25.695312 61.453125 -28.375 C 67.546875 -31.050781 72.625 -35.390625 76.6875 -41.390625 C 80.75 -47.390625 82.78125 -55.742188 82.78125 -66.453125 Z M 82.78125 -286.265625 "/></g></g></g></svg>